<svg width="125" height="125" xmlns="http://www.w3.org/2000/svg">
   <g id="seta" transform="rotate(120 55,72) ">
    <path fill="#0f0" d="m55.5,105.99999c19,0 34,-15 34,-34c0,-10 -9,-27 -9,-27l-24,-41l-25,40c0,0 -11,17 -11,28c0,19 16,34 35,34z"/>
   </g>
   <circle fill="#FFF" cx="55" cy="72" r="30"/>
   <g id="carro" fill="#000">
     <path d="M36.52 84.32c-.07-.02-.23-.04-.36-.05-.12 0-.3-.04-.4-.1-.13-.04-.24-.08-.28-.08-.2 0-.97-.42-1.46-.78-.7-.5-.88-.72-1.43-1.57-.44-.66-.66-1.57-.66-2.65 0-.98.1-1.47.55-2.35.3-.63.33-.67.83-1.2.28-.28.6-.57.72-.64l.33-.2c.07-.06.36-.2.63-.33 1.58-.7 3.25-.6 4.88.35.43.25 1.08.85 1.46 1.33.28.37.77 1.48.9 2.03.23 1.08.1 2.12-.4 3.26-.26.56-.86 1.38-1.2 1.64l-.45.37c-.45.4-1.5.84-2.16.92-.5.06-1.4.1-1.56.05h.04zm1.25-2.66c.34-.1.77-.36 1.2-.72.28-.25.54-.7.65-1.16.1-.4.08-1.05-.05-1.46-.1-.37-.42-.86-.64-1.02l-.34-.27c-.34-.3-1.03-.53-1.53-.52-.3 0-.76.1-.86.17-.05.04-.13.07-.17.07-.12 0-.6.32-.84.58-.17.16-.3.37-.45.65-.28.56-.3.65-.3 1.14 0 .5.08.85.24 1.1l.13.26c.1.3.92.96 1.4 1.12.38.12.4.13.8.13.26 0 .5-.02.7-.08l.04.03zm27.94 2.66c-.05-.02-.2-.04-.34-.05-.13 0-.35-.04-.48-.1l-.3-.1c-.16 0-1.1-.5-1.43-.75-.54-.4-.66-.53-1.04-1.05-.5-.7-.93-1.7-1.03-2.48-.08-.65 0-1.7.13-1.98.04-.08.07-.18.07-.22 0-.15.55-1.3.74-1.55.42-.54 1-1.07 1.4-1.32 1.67-.98 3.27-1.12 4.9-.4.3.1.6.26.67.32l.35.22c.1.06.44.35.72.65.5.5.53.55.84 1.18.43.86.55 1.4.55 2.38 0 1.1-.23 1.97-.7 2.7l-.3.42c-.35.56-1.3 1.33-2.03 1.64-.24.1-.46.2-.5.2-.04 0-.15.02-.24.06-.1.04-.32.1-.5.12-.46.06-1.37.08-1.5.04l.05.05zm1.4-2.7c.16-.06.4-.18.54-.26.26-.17.86-.72.86-.8 0 0 .06-.17.14-.33.22-.48.3-1.03.2-1.47-.07-.37-.32-.98-.52-1.23-.2-.24-.65-.63-.88-.72-.1-.03-.22-.1-.3-.13-.14-.07-.6-.15-.87-.16-.57 0-1.37.32-1.8.72-.85.82-1.07 2.17-.5 3.2.3.54.97 1.07 1.6 1.26.38.12 1.1.1 1.5-.04l.03-.02zm-38.5-6.46c-.85-4.23-.88-4.46-.73-4.9.14-.4.34-.76.52-.9l.3-.26c.1-.06.54-.27 1.03-.46 3.98-1.55 4.3-1.68 4.4-1.83l2.03-3.7c1.85-3.36 2.08-3.74 2.4-4.08.23-.22.83-.55 1.2-.65.36-.1.4-.1 6.6-.1s6.22 0 6.33.1c.05.05.15.16.2.24l.1.16.03 4.55.02 4.56h1.48l1.48.02 9.8-3.8c8.62-3.37 9.77-3.83 9.77-3.92 0-.2.18-.7.32-.94.23-.37.47-.58.8-.75.3-.14.36-.15.86-.17.58-.02.53-.03 1.2.28.28.14.73.72.85 1.13.17.5.1 1.3-.1 1.63-.06.1-.07.72-.07 5.55v5.44l.12.18c.25.36.28.42.28.57 0 .1-.04.22-.1.32-.1.14-.15.16-.66.3-.1.03-.28.13-.4.23-.1.1-.2.17-.23.17-.02 0-.1.16-.2.35-.3.64-.26 1.14.17 1.63.55.6 1.3.75 1.97.36.3-.17.6-.57.7-.92l.04-.2h.34c.3 0 .33 0 .33.1 0 .15-.08.43-.2.66l-.15.36c-.1.22-.65.75-.98.95-.27.15-.45.2-1.04.3-.3.05-.37.05-.76-.04-.37-.08-.5-.14-.8-.34-.68-.46-.72-.5-.94-.94-.28-.57-.3-.65-.3-1.24 0-.44.02-.6.1-.88.07-.2.17-.42.23-.5.2-.3.52-1.2.64-1.8.06-.3.07-.92.06-4.9V62.5l-1.26 2.67-1.25 2.68v5.06c0 5.02 0 5.07-.1 5.32-.05.15-.18.35-.3.5-.2.18-.3.25-.55.35-.3.1-.35.12-1.28.12H72V79c0-.1-.02-.26-.05-.37l-.1-.5c-.05-.43-.14-.7-.4-1.26-.3-.7-.78-1.4-1.16-1.72l-.34-.3c-.13-.1-.3-.26-.4-.32-.25-.2-1.08-.6-1.3-.67l-.36-.1c-.33-.14-1.1-.26-1.6-.26-.74 0-1.77.24-2.4.54-.86.43-.87.44-1.55 1.1-.44.45-.7.75-.8.9-.06.14-.17.32-.22.4-.05.07-.13.2-.16.28-.04.1-.1.26-.17.37-.13.25-.37 1.42-.37 1.78v.26H42.8v-.3c0-.6-.4-2.07-.64-2.36l-.2-.35c-.1-.2-.32-.45-.74-.9-.5-.5-.66-.64-1.06-.88-.72-.44-1.2-.6-2.1-.8-.58-.1-1.26-.1-1.87 0-.27.06-.53.12-.6.15l-.37.12c-.37.1-1.15.53-1.48.8l-.45.38c-.2.17-.45.44-.8.93-.35.52-.52.84-.65 1.24l-.2.62c-.05.13-.1.5-.14.8l-.04.53h-2l-.8-3.97h-.05zm44.62-7.38c.07-.12 2.75-5.82 2.73-5.84-.02-.02-14.9 5.8-14.95 5.85-.03 0 2.7.02 6.06.02 4.83 0 6.1 0 6.14-.06l.02.02zm-27.4-4.34v-3.5l-3.02.02h-3l-.22.14c-.22.13-.62.5-.62.57l-1.64 3-1.7 3.1-.1.15H45.8v-3.5.02z"/>
 </g>
</svg>