<svg width="125" height="125" xmlns="http://www.w3.org/2000/svg">
<g>
	<g id="seta" transform="rotate( 100 55,72) ">
		<path stroke-width="0" fill="#00ff00" d="m55.500004,105.999994c19,0 34,-15 34,-34c0,-10 -9,-27 -9,-27l-24,-41l-25,40c0,0 -11,17 -11,28c0,19 16,34 35,34z"/>
	</g>
	<circle fill="#FFFFFF" cx="55.000004" cy="72" r="30"/>
	<path id="onibus" fill="#000000" d="m73.000004,60c0,-3 -1,-6 -2,-7c-4,-4 -29,-5 -32,0c-1,1 -2,4 -2,7c-1,1 -2,1 -2,3l0,4c0,1 1,2 2,2c-1,7 0,14 0,17c0,3 2,2 2,2l1,0l0,3c0,1 2,2 3,2c1,0 3,-1 3,-2l0,-3l19,0l0,3c0,1 2,2 3,2c1,0 3,-1 3,-2l0,-3l0,0c0,0 2,1 2,-1c0,-3 1,-11 0,-18c1,0 2,-1 2,-2l0,-4c0,-2 -1,-2 -2,-3zm-28,-6l20,0l0,3l-20,0l0,-3zm0,31c-1,0 -3,-1 -3,-3c0,-1 2,-3 3,-3c2,0 3,2 3,3c0,2 -1,3 -3,3zm20,0c-2,0 -3,-1 -3,-3c0,-1 1,-3 3,-3c1,0 3,2 3,3c0,2 -2,3 -3,3zm3,-12l-27,0l0,-15l27,0l0,15z"/>
</g>
</svg>