<svg width="125" height="125" xmlns="http://www.w3.org/2000/svg">
 <g>
  <g transform="rotate(120 55,72) " id="seta">
   <path d="m55.5,105.99999c19,0 34,-15 34,-34c0,-10 -9,-27 -9,-27l-24,-41l-25,40c0,0 -11,17 -11,28c0,19 16,34 35,34z" fill="#0f0"/>
  </g>
  <circle r="30" cy="72" cx="55" fill="#FFF"/>
  <g fill="#000" id="carro">
   <path d="M39.85 87.72c-.68-.23-1.28-.76-1.58-1.28-.23-.75-.23-1.13-.23-3v-2.26H34.8l.4-6.02v-5.98l.36-.67c.75-.9 1.5-1.7 2.63-2.1l.7-.2 1.8-4.5c1.9-5 2.25-5.4 3.75-6l.76-.35h19.6l.77.38c1.3.6 1.5 1.04 3.52 6.04l1.7 4.5.73.26c.92.37 1.86 1.12 2.23 2.06l.4.64V81h-3.1v2.28c0 2.27 0 2.27-.1 3-1.15 2.27-4.53 1.9-5.28-.36l-.3-2.27V81.8H44.8v2.13c-.14 2.26-.18 2.4-.67 3-.37.9-1.95 1.37-3 1.03l-1.28-.08zm3.53-12.78c1.13-.38 1.8-1.88 1.5-3-.37-1.14-1.2-1.9-2.33-1.9s-2.18.38-2.74 1.5c-.3.76-.3 2.27.3 3.02.8 1.13 2.2 1.5 3.4 1.13v-.8zm26.88 0c.75-.38 1.13-1.13 1.13-2.26-.1-1.13-.6-1.5-1.6-2.26-1.3-.75-2.7 0-3.5 1.13-.64 1.13-.38 2.63.5 3.4 1.12.74 2.63 1.1 3.4.36l-.06-.3zm-2.78-9.4c-2.26-6.02-2.26-6.02-2.93-6.4h-9.2c-8.6 0-8.77 0-9.2.38l-.74.75c-.3 1.13-2.6 6.4-2.6 6.77 0 .38 3 .38 12.4.38h12.4l-.1-1.88zm-10.34.37c.38-.3.75-1.1 1.5-1.5h3.4c2.24 0 3 0 3.37.4.8.4 1.5 1.2 1.9 1.9v.4h-9.8l-.3-1.1zm3.76-2.6c-.38-.3-.75-.7-.75-1.9 0-.7 0-.7.37-1.1.38 0 .76-.3 1.13-.3 1.13-.34 2.26.4 2.63 1.17.38.75.38 1.88 0 2.25-.75.75-1.88 1.13-2.63.75l-.75-.77z"/>
  </g>
 </g>
</svg>