<svg width="125" height="125" xmlns="http://www.w3.org/2000/svg">
<g>
   <g id="seta" transform="rotate(50 55,72) ">
    <path stroke-width="0" fill="#00ff00" d="m55.5,105.99999c19,0 34,-15 34,-34c0,-10 -9,-27 -9,-27l-24,-41l-25,40c0,0 -11,17 -11,28c0,19 16,34 35,34z"/>
   </g>
   <circle fill="#FFFFFF" cx="55.000004" cy="72" r="30"/>
   <g id="manutencao" fill="#000000">
		<path d="m77.770033,68.566689c-0.256,-2.264 -6.35,0 -6.35,0l-0.358,3.22c-0.133,-0.077 -0.268,-0.15 -0.41,-0.214l-1.54,-6.715c-0.563,-3.19 -2.976,-5.55 -6.493,-5.43l-9.04,0c-0.06,0.38 -0.148,0.74 -0.25,1.1l9.9,0c2.05,0 3.93,1.32 4.44,3.5l1.653,6.63c-0.105,-0.002 -0.208,-0.012 -0.313,-0.012l-19.16,0l0.006,6.463l11.873,0l0,1.444l-11.88,0l0,0.423l11.76,0l0,1.448l-11.75,0l0.003,5.43l12.677,0l0,3.44c0,1.397 1.73,2.53 3.86,2.53s3.857,-1.132 3.857,-2.53l0,-3.837c1.82,-0.688 3.09,-2.193 3.09,-3.944l0,-6.154c0,-1.36 -0.77,-2.57 -1.958,-3.37l6.38,-0.345s0.25,-0.814 0,-3.075l0.003,-0.002zm-7.313,11.744l-6.966,0l0,-3.312l6.966,0l0,3.312z"/>
		<path d="m46.672,76.96l0.177,0l0,1.45l-0.18,0l0.003,-1.45zm0.117,-0.415l0.056,0l0,1.445l-0.055,0l-0.001,-1.445z"/>
		<path d="m52.210033,58.452689c-0.005,-2.778 -1.515,-5.198 -3.764,-6.488l0,5.993l-3.72,2.15l-3.725,-2.15l0,-5.985c-2.24,1.29 -3.75,3.71 -3.76,6.488c0,2.914 1.67,5.438 4.11,6.677l0,24.68c0,0.975 0.395,1.858 1.035,2.5c0.64,0.64 1.52,1.028 2.5,1.03c1.943,0 3.523,-1.576 3.53,-3.53l-0.015,-24.84c2.28,-1.28 3.814,-3.723 3.817,-6.52l-0.008,-0.005zm-6.547,32.925c-0.526,0.53 -1.382,0.53 -1.912,0c-0.522,-0.524 -0.52,-1.376 0.005,-1.904c0.53,-0.526 1.382,-0.526 1.904,-0.004c0.53,0.53 0.53,1.382 0.003,1.91l0,-0.002z"/>
   </g>
</g>
</svg>