<svg width="125" height="125" xmlns="http://www.w3.org/2000/svg">
<g>
   <g id="seta" transform="rotate(120 55,72) ">
    <path stroke-width="0" fill="#00ff00" d="m55.5,105.99999c19,0 34,-15 34,-34c0,-10 -9,-27 -9,-27l-24,-41l-25,40c0,0 -11,17 -11,28c0,19 16,34 35,34z"/>
   </g>
   <circle fill="#FFFFFF" cx="55.000004" cy="72" r="30"/>
   <g id="manutencao" fill="#000000">
		<path stroke="null" id="svg_4" d="m33.780581,75.94453c-0.520586,-3.485976 -0.260293,-6.971952 0.743695,-10.270511l0.669325,-1.686763l0,-0.112451l1.48739,0.637221l1.561759,0.637221l-0.185924,0.449803c-2.231084,5.80996 -1.41302,12.294626 2.231084,17.354914c0.371847,0.562254 1.227096,1.499345 1.710498,2.024115c3.495366,3.448493 7.994719,5.360157 12.791551,5.435124c5.689265,0 11.155422,-2.623853 14.576419,-7.234338c1.859237,-2.436435 2.974779,-5.247706 3.420996,-8.246395c0.669325,-4.198165 -0.223108,-8.621231 -2.454193,-12.257142c-2.417008,-4.04823 -6.395776,-7.009436 -10.969499,-8.133944c-2.231084,-0.599738 -4.31343,-0.749672 -6.693253,-0.374836l-0.148739,0l0.743695,3.11114l0.743695,3.223591l-5.689265,-2.923722l-5.689265,-2.923722l3.830028,-5.135255l3.867213,-5.135255l0.743695,3.223591l0.743695,3.261075l0.446217,0c1.115542,-0.224902 2.714486,-0.262385 4.090322,-0.187418c2.714486,0.187418 5.503342,0.899607 7.957535,2.099082c4.982755,2.473919 8.812784,6.747051 10.709206,11.882306c0.371847,1.012058 0.483402,1.499345 0.743695,2.623853c0.297478,1.199476 0.371847,1.649279 0.483402,2.623853c0.557771,5.097772 -0.743695,10.195543 -3.60692,14.431192c-2.602932,3.635911 -6.098298,6.447182 -10.188619,7.946526c-1.041173,0.374836 -1.48739,0.524771 -2.602932,0.749672c-1.115542,0.299869 -1.710498,0.374836 -2.788856,0.524771c-3.420996,0.374836 -6.953547,-0.187418 -10.188619,-1.499345c-1.189912,-0.524771 -2.007976,-0.93709 -3.160703,-1.686763c-0.929619,-0.562254 -1.338651,-0.862123 -2.045161,-1.424377c-2.974779,-2.398951 -5.391787,-5.622542 -6.693253,-9.258453c-0.371847,-1.049541 -0.892434,-2.848755 -1.115542,-3.860812l-0.074369,0.112451z"/>
   </g>
   <text xml:space="preserve" text-anchor="start" font-family="sans-serif" font-size="15" id="svg_5" y="76.500013" x="43.58333" fill-opacity="null" stroke-opacity="null" stroke-width="2" stroke="null" fill="blue">15h</text>
</g>
</svg>